<svg xmlns="http://www.w3.org/2000/svg" xmlns:xlink="http://www.w3.org/1999/xlink" width="500" zoomAndPan="magnify" viewBox="0 0 375 374.999991" height="500" preserveAspectRatio="xMidYMid meet" version="1.0"><defs><clipPath id="34619074e7"><path d="M 70.289062 134.644531 L 182.789062 134.644531 L 182.789062 147.46875 L 70.289062 147.46875 Z M 70.289062 134.644531 " clip-rule="nonzero"/></clipPath><clipPath id="d51e699726"><path d="M 192.210938 134.644531 L 304.710938 134.644531 L 304.710938 221.027344 L 192.210938 221.027344 Z M 192.210938 134.644531 " clip-rule="nonzero"/></clipPath><clipPath id="afea33a20c"><path d="M 70.289062 153.972656 L 182.789062 153.972656 L 182.789062 240.355469 L 70.289062 240.355469 Z M 70.289062 153.972656 " clip-rule="nonzero"/></clipPath><clipPath id="c42153bb33"><path d="M 192.210938 227.53125 L 304.710938 227.53125 L 304.710938 240.355469 L 192.210938 240.355469 Z M 192.210938 227.53125 " clip-rule="nonzero"/></clipPath></defs><g clip-path="url(#34619074e7)"><path fill="#ffffff" d="M 70.289062 134.644531 L 182.8125 134.644531 L 182.8125 147.46875 L 70.289062 147.46875 Z M 70.289062 134.644531 " fill-opacity="1" fill-rule="nonzero"/></g><g clip-path="url(#d51e699726)"><path fill="#ffffff" d="M 192.210938 134.644531 L 304.578125 134.644531 L 304.578125 221.027344 L 192.210938 221.027344 Z M 192.210938 134.644531 " fill-opacity="1" fill-rule="nonzero"/></g><g clip-path="url(#afea33a20c)"><path fill="#ffffff" d="M 70.289062 153.972656 L 182.65625 153.972656 L 182.65625 240.355469 L 70.289062 240.355469 Z M 70.289062 153.972656 " fill-opacity="1" fill-rule="nonzero"/></g><g clip-path="url(#c42153bb33)"><path fill="#ffffff" d="M 192.210938 227.53125 L 304.730469 227.53125 L 304.730469 240.355469 L 192.210938 240.355469 Z M 192.210938 227.53125 " fill-opacity="1" fill-rule="nonzero"/></g></svg>